<?xml version="1.0" encoding="UTF-8" standalone="no"?>
<!-- Created with Inkscape (http://www.inkscape.org/) -->

<svg
   xmlns:dc="http://purl.org/dc/elements/1.1/"
   xmlns:cc="http://creativecommons.org/ns#"
   xmlns:rdf="http://www.w3.org/1999/02/22-rdf-syntax-ns#"
   xmlns:svg="http://www.w3.org/2000/svg"
   xmlns="http://www.w3.org/2000/svg"
   xmlns:sodipodi="http://sodipodi.sourceforge.net/DTD/sodipodi-0.dtd"
   xmlns:inkscape="http://www.inkscape.org/namespaces/inkscape"
   width="744.09448819"
   height="1052.3622047"
   id="svg3167"
   version="1.1"
   inkscape:version="0.48.3.1 r9886"
   sodipodi:docname="New document 6">
  <defs
     id="defs3169" />
  <sodipodi:namedview
     id="base"
     pagecolor="#ffffff"
     bordercolor="#666666"
     borderopacity="1.0"
     inkscape:pageopacity="0"
     inkscape:pageshadow="2"
     inkscape:zoom="4"
     inkscape:cx="129.81192"
     inkscape:cy="260.71214"
     inkscape:document-units="px"
     inkscape:current-layer="layer1"
     showgrid="false"
     inkscape:window-width="1366"
     inkscape:window-height="737"
     inkscape:window-x="1366"
     inkscape:window-y="0"
     inkscape:window-maximized="1" />
  <metadata
     id="metadata3172">
    <rdf:RDF>
      <cc:Work
         rdf:about="">
        <dc:format>image/svg+xml</dc:format>
        <dc:type
           rdf:resource="http://purl.org/dc/dcmitype/StillImage" />
        <dc:title></dc:title>
      </cc:Work>
    </rdf:RDF>
  </metadata>
  <g
     inkscape:label="Layer 1"
     inkscape:groupmode="layer"
     id="layer1">
    <rect
       style="fill:#ffffff;fill-opacity:0;stroke:none"
       id="rect4063"
       width="79"
       height="79"
       x="79.830864"
       y="756.55573"
       inkscape:export-filename="/tmp/planetlug/images/logo.png"
       inkscape:export-xdpi="90"
       inkscape:export-ydpi="90" />
    <g
       id="g4065">
      <g
         transform="matrix(0.44793434,0,0,0.44793434,47.983296,529.20129)"
         id="g4054">
        <path
           inkscape:export-ydpi="90"
           inkscape:export-xdpi="90"
           inkscape:export-filename="/tmp/logo.png"
           transform="matrix(4.341855,-4.2283153,4.341855,4.2283153,-2147.2331,392.00586)"
           d="m 236.08527,290.0127 c 0,3.02656 -2.45351,5.48007 -5.48008,5.48007 -3.02656,0 -5.48007,-2.45351 -5.48007,-5.48007 0,-3.02657 2.45351,-5.48008 5.48007,-5.48008 3.02657,0 5.48008,2.45351 5.48008,5.48008 z"
           sodipodi:ry="5.4800777"
           sodipodi:rx="5.4800777"
           sodipodi:cy="290.0127"
           sodipodi:cx="230.60519"
           id="path2997"
           style="fill:#000000;fill-opacity:1;stroke:#000000;stroke-width:2;stroke-linecap:round;stroke-linejoin:round;stroke-miterlimit:4;stroke-opacity:1;stroke-dasharray:none"
           sodipodi:type="arc" />
        <path
           sodipodi:type="star"
           style="fill:#ffa200;fill-opacity:1;stroke:#000000;stroke-width:2;stroke-linecap:round;stroke-linejoin:round;stroke-miterlimit:4;stroke-opacity:1;stroke-dasharray:none"
           id="path3001"
           sodipodi:sides="3"
           sodipodi:cx="217.68787"
           sodipodi:cy="222.01678"
           sodipodi:r1="17.180019"
           sodipodi:r2="8.5900087"
           sodipodi:arg1="1.5707963"
           sodipodi:arg2="2.6179939"
           inkscape:flatsided="false"
           inkscape:rounded="0"
           inkscape:randomized="0"
           d="m 217.68787,239.1968 -7.43917,-12.88501 -7.43917,-12.88501 14.87834,0 14.87833,-1e-5 -7.43917,12.88502 z"
           inkscape:transform-center-y="4.7526135"
           transform="matrix(1.126521,0,0,1.1065385,-132.01563,410.06176)"
           inkscape:export-filename="/tmp/logo.png"
           inkscape:export-xdpi="90"
           inkscape:export-ydpi="90" />
        <g
           id="g3003"
           transform="matrix(0.84355606,0,0,0.8285929,-80.747652,475.18299)"
           inkscape:export-filename="/tmp/logo.png"
           inkscape:export-xdpi="90"
           inkscape:export-ydpi="90">
          <path
             transform="matrix(1.0431771,0,0,1.0431771,11.733742,-15.81225)"
             sodipodi:type="arc"
             style="fill:#ffffff;fill-opacity:1;stroke:#000000;stroke-width:2.56033802;stroke-linecap:round;stroke-linejoin:round;stroke-miterlimit:4;stroke-opacity:1;stroke-dasharray:none"
             id="path3005"
             sodipodi:cx="224.50641"
             sodipodi:cy="197.01552"
             sodipodi:rx="15.404826"
             sodipodi:ry="15.404826"
             d="m 239.91123,197.01552 c 0,8.50785 -6.89697,15.40482 -15.40482,15.40482 -8.50785,0 -15.40483,-6.89697 -15.40483,-15.40482 0,-8.50785 6.89698,-15.40483 15.40483,-15.40483 8.50785,0 15.40482,6.89698 15.40482,15.40483 z" />
          <path
             transform="matrix(1.3354429,0,0,1.3354429,-66.581532,-72.718648)"
             sodipodi:type="arc"
             style="fill:#000000;fill-opacity:1;stroke:#000000;stroke-width:2;stroke-linecap:round;stroke-linejoin:round;stroke-miterlimit:4;stroke-opacity:1;stroke-dasharray:none"
             id="path3007"
             sodipodi:cx="228.04193"
             sodipodi:cy="196.51044"
             sodipodi:rx="2.7779195"
             sodipodi:ry="2.7779195"
             d="m 230.81985,196.51044 c 0,1.5342 -1.24372,2.77792 -2.77792,2.77792 -1.5342,0 -2.77792,-1.24372 -2.77792,-2.77792 0,-1.53421 1.24372,-2.77792 2.77792,-2.77792 1.5342,0 2.77792,1.24371 2.77792,2.77792 z" />
          <path
             d="m 239.91123,197.01552 c 0,8.50785 -6.89697,15.40482 -15.40482,15.40482 -8.50785,0 -15.40483,-6.89697 -15.40483,-15.40482 0,-8.50785 6.89698,-15.40483 15.40483,-15.40483 8.50785,0 15.40482,6.89698 15.40482,15.40483 z"
             sodipodi:ry="15.404826"
             sodipodi:rx="15.404826"
             sodipodi:cy="197.01552"
             sodipodi:cx="224.50641"
             id="path3009"
             style="fill:#ffffff;fill-opacity:1;stroke:#000000;stroke-width:2.56033802;stroke-linecap:round;stroke-linejoin:round;stroke-miterlimit:4;stroke-opacity:1;stroke-dasharray:none"
             sodipodi:type="arc"
             transform="matrix(-1.0431771,0,0,1.0431771,448.13363,-15.81225)" />
          <path
             d="m 230.81985,196.51044 c 0,1.5342 -1.24372,2.77792 -2.77792,2.77792 -1.5342,0 -2.77792,-1.24372 -2.77792,-2.77792 0,-1.53421 1.24372,-2.77792 2.77792,-2.77792 1.5342,0 2.77792,1.24371 2.77792,2.77792 z"
             sodipodi:ry="2.7779195"
             sodipodi:rx="2.7779195"
             sodipodi:cy="196.51044"
             sodipodi:cx="228.04193"
             id="path3011"
             style="fill:#000000;fill-opacity:1;stroke:#000000;stroke-width:2;stroke-linecap:round;stroke-linejoin:round;stroke-miterlimit:4;stroke-opacity:1;stroke-dasharray:none"
             sodipodi:type="arc"
             transform="matrix(-1.3354429,0,0,1.3354429,526.4489,-72.718648)" />
        </g>
      </g>
      <path
         inkscape:connector-curvature="0"
         id="path4009"
         d="m 95.336357,759.35154 0,6.71902 c 29.686483,0 53.752123,24.06564 53.752123,53.75212 l 6.71902,0 c 0,-33.39729 -27.07386,-60.47114 -60.471143,-60.47114 z m 0,13.43804 0,6.71901 c 22.264863,0 40.314083,18.04924 40.314083,40.31409 l 6.71902,0 c 0,-25.97567 -21.05744,-47.0331 -47.033103,-47.0331 z m 0,13.43803 0,6.71901 c 14.843233,0 26.876063,12.03283 26.876063,26.87606 l 6.71902,0 c 0,-18.55405 -15.04103,-33.59507 -33.595083,-33.59507 z"
         style="fill:#ffd225;fill-opacity:1;stroke:#ffd225;stroke-width:3.82671738;stroke-linecap:round;stroke-linejoin:round;stroke-miterlimit:4;stroke-opacity:1;stroke-dasharray:none" />
    </g>
  </g>
</svg>
